<svg xmlns="http://www.w3.org/2000/svg" xmlns:xlink="http://www.w3.org/1999/xlink" version="1.1" width="256" height="256" viewBox="0 0 256 256" xml:space="preserve">

<defs>
</defs>
<g style="stroke: none; stroke-width: 0; stroke-dasharray: none; stroke-linecap: butt; stroke-linejoin: miter; stroke-miterlimit: 10; fill: none; fill-rule: nonzero; opacity: 1;" transform="translate(1.4065934065934016 1.4065934065934016) scale(2.81 2.81)" >
	<path d="M 81.549 8.451 c -11.248 -11.25 -29.553 -11.25 -40.803 0 c -8.447 8.447 -10.786 21.129 -6.028 31.975 L 1.501 73.643 c -0.341 0.341 -0.547 0.793 -0.581 1.272 L 0.005 87.858 c -0.041 0.578 0.171 1.146 0.581 1.556 C 0.962 89.791 1.471 90 2 90 c 0.047 0 0.094 -0.002 0.141 -0.005 l 12.943 -0.915 c 0.48 -0.034 0.933 -0.24 1.273 -0.581 l 3.928 -3.929 c 0.304 -0.304 0.501 -0.696 0.564 -1.121 l 1.169 -7.903 l 7.887 -1.169 c 0.872 -0.129 1.556 -0.813 1.685 -1.686 l 1.168 -7.886 l 7.903 -1.169 c 0.425 -0.063 0.818 -0.261 1.122 -0.564 l 7.79 -7.79 c 10.849 4.758 23.528 2.419 31.975 -6.028 C 86.999 43.805 90 36.559 90 28.853 C 90 21.146 86.999 13.9 81.549 8.451 z M 73.869 25.908 c -2.7 2.7 -7.077 2.7 -9.777 0 s -2.7 -7.077 0 -9.777 s 7.077 -2.7 9.777 0 S 76.569 23.208 73.869 25.908 z" style="stroke: none; stroke-width: 1; stroke-dasharray: none; stroke-linecap: butt; stroke-linejoin: miter; stroke-miterlimit: 10; fill: rgb(0,0,0); fill-rule: nonzero; opacity: 1;" transform=" matrix(1 0 0 1 0 0) " stroke-linecap="round" />
</g>
</svg>